<?xml version="1.0" encoding="UTF-8" standalone="no"?>
<svg
   height="24"
   viewBox="0 -960 960 960"
   width="24"
   version="1.1"
   id="svg355"
   sodipodi:docname="deceased_FILL0_wght200_GRAD0_opsz24.svg"
   xml:space="preserve"
   inkscape:version="1.2.2 (b0a8486, 2022-12-01)"
   xmlns:inkscape="http://www.inkscape.org/namespaces/inkscape"
   xmlns:sodipodi="http://sodipodi.sourceforge.net/DTD/sodipodi-0.dtd"
   xmlns="http://www.w3.org/2000/svg"
   xmlns:svg="http://www.w3.org/2000/svg"><defs
     id="defs359" /><sodipodi:namedview
     id="namedview357"
     pagecolor="#ffffff"
     bordercolor="#666666"
     borderopacity="1.0"
     inkscape:showpageshadow="2"
     inkscape:pageopacity="0.0"
     inkscape:pagecheckerboard="0"
     inkscape:deskcolor="#d1d1d1"
     showgrid="false"
     inkscape:zoom="23.953242"
     inkscape:cx="6.3039483"
     inkscape:cy="10.937976"
     inkscape:window-width="1920"
     inkscape:window-height="1043"
     inkscape:window-x="1920"
     inkscape:window-y="0"
     inkscape:window-maximized="1"
     inkscape:current-layer="svg355" /><path
     d="m 446.38496,-71.862501 q -12.09919,-35.201429 -30.92015,-64.987879 -18.82097,-29.78645 -44.3637,-55.51032 -25.54274,-25.72386 -55.11854,-44.7005 -29.5758,-18.9753 -64.52902,-31.07433 2.68871,38.98574 18.82096,72.59413 16.13226,33.6084 43.01935,60.49511 26.88709,26.88672 60.49596,43.173351 33.60886,16.287972 72.59514,20.010438 z m 77.97392,0 q 38.98628,-2.999213 72.88149,-19.131243 33.89656,-16.132026 61.01353,-43.018746 27.11698,-26.88672 43.24924,-61.01268 16.13225,-34.12462 19.13151,-73.11036 -34.70721,12.09903 -64.74143,30.91973 -30.03423,18.82069 -55.39682,44.36307 -25.3626,25.54238 -44.57477,55.78994 -19.21217,30.24756 -31.56275,65.200289 z M 485.88882,-514.45952 q 85.62464,0 145.1903,-59.56483 59.56566,-59.56483 59.56566,-145.18827 v -95.55135 l -94.10482,79.31581 -110.65114,-146.5326 -110.65113,146.5326 -94.10483,-79.31581 v 95.55135 q 0,85.62344 59.56567,145.18827 59.56566,59.56483 145.19029,59.56483 z m -20.68289,496.370447 q -112.0291,0 -190.45068,-78.419136 -78.42024,-78.420491 -78.42024,-190.448021 v -47.56932 q 85.1084,13.13282 155.32538,61.21836 70.21565,48.08555 107.34134,117.68181 v -305.99099 q -98.03437,-9.51386 -164.83938,-82.88368 -66.80367,-73.36981 -66.80367,-174.71257 v -118.7156 q 0,-28.74862 25.74977,-39.76142 25.74977,-11.0128 46.43132,7.70439 l 68.45991,59.15077 83.4535,-109.82148 q 13.40187,-16.75311 34.62116,-16.75311 21.22064,0 34.25013,16.75311 l 83.4535,109.82148 68.45991,-59.15077 q 20.68155,-18.71719 46.43132,-7.70439 25.74977,11.0128 25.74977,39.76142 v 118.7156 q 0,101.34276 -66.80367,174.71257 -66.80501,73.36982 -164.83938,82.88368 v 304.95585 q 37.12569,-68.56112 106.8251,-116.64667 69.69941,-48.08554 153.774,-61.21836 v 47.56932 q 0,112.02753 -78.1191,190.448021 -78.12045,78.419136 -189.71801,78.419136 z m 20.68289,-680.130397 z m 136.60794,528.22045 z m -272.90533,0 z"
     id="path353"
     style="stroke-width:1;fill:#666666" /></svg>
