<?xml version="1.0" encoding="UTF-8" standalone="no"?>
<!-- Uploaded to: SVG Repo, www.svgrepo.com, Transformed by: SVG Repo Mixer Tools -->

<svg
   width="800px"
   height="800px"
   viewBox="0 0 48 48"
   fill="#000000"
   stroke="#000000"
   stroke-width="0.9120000000000001"
   version="1.1"
   id="svg266"
   sodipodi:docname="panorama-svgrepo-com.svg"
   inkscape:version="1.2.2 (b0a8486, 2022-12-01)"
   xmlns:inkscape="http://www.inkscape.org/namespaces/inkscape"
   xmlns:sodipodi="http://sodipodi.sourceforge.net/DTD/sodipodi-0.dtd"
   xmlns="http://www.w3.org/2000/svg"
   xmlns:svg="http://www.w3.org/2000/svg">
  <defs
     id="defs270" />
  <sodipodi:namedview
     id="namedview268"
     pagecolor="#ffffff"
     bordercolor="#666666"
     borderopacity="1.0"
     inkscape:showpageshadow="2"
     inkscape:pageopacity="0.0"
     inkscape:pagecheckerboard="0"
     inkscape:deskcolor="#d1d1d1"
     showgrid="false"
     inkscape:zoom="1.01625"
     inkscape:cx="400.492"
     inkscape:cy="400"
     inkscape:window-width="1920"
     inkscape:window-height="1016"
     inkscape:window-x="0"
     inkscape:window-y="27"
     inkscape:window-maximized="1"
     inkscape:current-layer="svg266" />
  <g
     id="SVGRepo_bgCarrier"
     stroke-width="0" />
  <g
     id="SVGRepo_tracerCarrier"
     stroke-linecap="round"
     stroke-linejoin="round" />
  <path
     d="m 46.5,40 a 0.49,0.49 0 0 1 -0.18,0 C 41.51,38.1 33.58,37.07 24,37.07 14.42,37.07 6.49,38.1 1.68,40 A 0.49,0.49 0 0 1 1.22,39.95 0.5,0.5 0 0 1 1,39.5 V 8.5 A 0.5,0.5 0 0 1 1.22,8.09 0.49,0.49 0 0 1 1.68,8 C 6.49,9.9 14.42,10.93 24,10.93 33.58,10.93 41.51,9.9 46.32,8 A 0.49,0.49 0 0 1 46.78,8.05 0.5,0.5 0 0 1 47,8.5 v 31 A 0.5,0.5 0 0 1 46.78,39.91 0.49,0.49 0 0 1 46.5,40 Z M 24,36.07 c 9.27,0 17,1 22,2.71 V 9.22 C 41,11 33.27,11.93 24,11.93 14.73,11.93 7,11 2,9.22 V 38.78 C 7,37 14.73,36.07 24,36.07 Z"
     id="path257" />
  <path
     d="M 38.54,33 H 9.46 a 0.73,0.73 0 0 1 -0.65,-0.39 0.71,0.71 0 0 1 0,-0.74 l 6.5,-8.2 a 0.71,0.71 0 0 1 0.57,-0.29 0.72,0.72 0 0 1 0.6,0.3 l 4.06,4.46 7.46,-9.97 a 0.77,0.77 0 0 1 1.2,0 l 9.92,13.64 v 0 a 0.71,0.71 0 0 1 0,0.73 A 0.73,0.73 0 0 1 38.54,33 Z M 10,32 H 38 L 28.6,19 21.21,28.9 A 0.72,0.72 0 0 1 20.63,29.2 0.81,0.81 0 0 1 20,29 l -4,-4.52 z m 10.37,-3.61 z m 0.37,0 z m -5,-4 z m 0.4,0 z m 12.22,-5.46 z m 0.43,0 z"
     id="path259" />
  <path
     d="m 21,21 a 3,3 0 1 1 3,-3 3,3 0 0 1 -3,3 z m 0,-5 a 2,2 0 1 0 2,2 2,2 0 0 0 -2,-2 z"
     id="path261" />
</svg>
