<?xml version="1.0" encoding="UTF-8" standalone="no"?>
<!-- Uploaded to: SVG Repo, www.svgrepo.com, Generator: SVG Repo Mixer Tools -->

<svg
   version="1.1"
   id="_x32_"
   viewBox="0 0 26.855473 37.356346"
   xml:space="preserve"
   sodipodi:docname="carnation.svg"
   inkscape:version="1.2.2 (b0a8486, 2022-12-01)"
   width="26.855473"
   height="37.356346"
   xmlns:inkscape="http://www.inkscape.org/namespaces/inkscape"
   xmlns:sodipodi="http://sodipodi.sourceforge.net/DTD/sodipodi-0.dtd"
   xmlns="http://www.w3.org/2000/svg"
   xmlns:svg="http://www.w3.org/2000/svg"><defs
   id="defs394" /><sodipodi:namedview
   id="namedview392"
   pagecolor="#ffffff"
   bordercolor="#666666"
   borderopacity="1.0"
   inkscape:showpageshadow="2"
   inkscape:pageopacity="0.0"
   inkscape:pagecheckerboard="0"
   inkscape:deskcolor="#d1d1d1"
   showgrid="false"
   inkscape:zoom="4.695631"
   inkscape:cx="37.162205"
   inkscape:cy="80.2874"
   inkscape:window-width="1920"
   inkscape:window-height="1043"
   inkscape:window-x="1920"
   inkscape:window-y="0"
   inkscape:window-maximized="1"
   inkscape:current-layer="g4123" />
<style
   type="text/css"
   id="style375">
	.st0{fill:#000000;}
</style>

<g
   id="g4123"
   transform="matrix(1.713894,0,0,1.713894,-356.85293,-711.85599)"
   style="stroke-width:0.583466"><g
     id="g4027"
     style="fill:#e6e6e6;stroke-width:10.5906"
     transform="matrix(0.0550929,0,0,0.0550929,198.15201,399.34479)"><path
       sodipodi:nodetypes="ccccccccccccc"
       inkscape:connector-curvature="0"
       id="path3949"
       transform="translate(200.53324,369.03456)"
       d="m 78.59375,138.75 3.3125,34.1875 13.15625,14.71875 1.03125,3.875 -3.5625,124.25 8.34375,1.21875 3.15625,-66.40625 7.53125,-58.3125 14.6875,-4.625 16.8125,-24.6875 -13,-8.25 L 98,143.625 Z"
       style="fill:#e6e6e6;stroke:none;stroke-width:10.5906" /><g
       id="g4021"
       style="fill:#e6e6e6;stroke-width:10.5906" /></g><g
     id="g4017"
     style="fill:#f9f9f9;stroke-width:10.5906"
     transform="matrix(0.0550929,0,0,0.0550929,198.15201,399.34479)"><path
       inkscape:connector-curvature="0"
       id="path3995"
       transform="translate(200.53324,369.03456)"
       d="m 112.59375,23.84375 -0.53125,11.09375 -3.09375,-9.78125 -1.53125,0.25 4.625,31.71875 -8.5,-24.5 h -3.625 L 106.15625,85.25 81.375,32.375 71.3125,35.96875 83.1875,59.71875 63.84375,32.625 46.5625,44.5 l 7.21875,10.5625 -8.5,-4.625 L 32.625,59.71875 52.75,77 34.1875,67.1875 23.59375,77 l 5.9375,5.15625 -5.40625,-1.5625 -2.84375,2.0625 35.0625,21.40625 -36.09375,-8.5 -0.25,2.59375 15.96875,6.1875 -17.28125,-4.125 -1.53125,10.8125 21.90625,9.5625 -16.5,-1.03125 -5.15625,10.3125 20.625,5.40625 40.5,2.84375 0.0625,0.625 19.40625,4.875 32.0625,11.09375 13,8.25 0.21875,-0.34375 12.125,0.25 50.0625,26.59375 6.6875,-10.59375 L 199,173.21875 l 20.375,3.84375 -0.25,-3.84375 -23.21875,-8 -0.5,-1.03125 31.96875,-1.03125 0.53125,-4.40625 -16.25,-6.9375 12.625,-1.5625 -8.5,-15.46875 -44.375,-1.03125 49.28125,-12.90625 -0.78125,-21.9375 -21.40625,3.875 14.9375,-10.3125 -3.84375,-7.75 -21.9375,11.375 L 185.0625,95.5625 215.5,72.59375 205.71875,61 192.5625,72.59375 l 3.875,-12.625 -2.84375,-1.5625 -3.875,8 2.84375,-9.78125 -4.375,-4.90625 L 171.90625,73.375 178.375,45.53125 168.5625,35.1875 142,77.75 147.9375,30.5625 131.15625,27.71875 128.0625,39.59375 126.25,24.625 Z"
       style="fill:#f9f9f9;stroke:none;stroke-width:10.5906" /><path
       inkscape:connector-curvature="0"
       id="path4012"
       transform="translate(200.53324,369.03456)"
       d="M 93.875,120.28125 75.25,149 l 3.40625,2.8125 21,-23.3125 -13.46875,23.25 16.125,4.75 6.34375,-12.53125 -1.9375,12.71875 9.125,3.53125 2.03125,-6.0625 4.375,-9.09375 -1.84375,13.90625 16,5.1875 2,-26.78125 4.15625,31.125 4.40625,-0.40625 0.875,-34.21875 -32.625,-7.6875 -0.59375,2.125 z"
       style="fill:#f9f9f9;stroke:none;stroke-width:10.5906" /></g></g></svg>
