<?xml version="1.0" encoding="UTF-8" standalone="no"?>
<svg
   height="24"
   viewBox="0 -960 960 960"
   width="24"
   version="1.1"
   id="svg258"
   sodipodi:docname="deceased_FILL0_wght400_GRAD0_opsz24b.svg"
   inkscape:version="1.2.2 (b0a8486, 2022-12-01)"
   xmlns:inkscape="http://www.inkscape.org/namespaces/inkscape"
   xmlns:sodipodi="http://sodipodi.sourceforge.net/DTD/sodipodi-0.dtd"
   xmlns="http://www.w3.org/2000/svg"
   xmlns:svg="http://www.w3.org/2000/svg">
  <defs
     id="defs262" />
  <sodipodi:namedview
     id="namedview260"
     pagecolor="#ffffff"
     bordercolor="#666666"
     borderopacity="1.0"
     inkscape:showpageshadow="2"
     inkscape:pageopacity="0.0"
     inkscape:pagecheckerboard="0"
     inkscape:deskcolor="#d1d1d1"
     showgrid="false"
     inkscape:zoom="17.5"
     inkscape:cx="5.4285714"
     inkscape:cy="12.457143"
     inkscape:window-width="1920"
     inkscape:window-height="1043"
     inkscape:window-x="1920"
     inkscape:window-y="0"
     inkscape:window-maximized="1"
     inkscape:current-layer="svg258" />
  <path
     d="M426-160q-9-26-23-48t-33-41q-19-19-41-33.5T281-306q2 29 14 54t32 45q20 20 45 32.5t54 14.5Zm108 0q29-3 54-15t45-32q20-20 32-45t15-54q-26 9-48.5 23T590-250q-19 19-33 41.5T534-160Zm-54-360q66 0 113-47t47-113v-48l-70 59-90-109-90 109-70-59v48q0 66 47 113t113 47ZM440-80q-100 0-170-70t-70-170v-80q71-1 134 29t106 81v-153q-86-14-143-80.5T240-680v-136q0-26 23-36.5t43 6.5l74 64 69-84q12-14 31-14t31 14l69 84 74-64q20-17 43-6.5t23 36.5v136q0 90-57 156.5T520-443v153q43-51 106-81t134-29v80q0 100-70 170T520-80h-80Zm40-569Zm127 416Zm-253 0Z"
     id="path256"
     style="fill:#ffffff" />
</svg>
