<?xml version="1.0" encoding="UTF-8" standalone="no"?>
<svg
   height="24"
   viewBox="0 -960 960 960"
   width="24"
   version="1.1"
   id="svg476"
   sodipodi:docname="deceased_FILL0_wght200_GRAD0_opsz24b.svg"
   inkscape:version="1.2.2 (b0a8486, 2022-12-01)"
   xmlns:inkscape="http://www.inkscape.org/namespaces/inkscape"
   xmlns:sodipodi="http://sodipodi.sourceforge.net/DTD/sodipodi-0.dtd"
   xmlns="http://www.w3.org/2000/svg"
   xmlns:svg="http://www.w3.org/2000/svg">
  <defs
     id="defs480" />
  <sodipodi:namedview
     id="namedview478"
     pagecolor="#ffffff"
     bordercolor="#666666"
     borderopacity="1.0"
     inkscape:showpageshadow="2"
     inkscape:pageopacity="0.0"
     inkscape:pagecheckerboard="0"
     inkscape:deskcolor="#d1d1d1"
     showgrid="false"
     inkscape:zoom="17.708333"
     inkscape:cx="1.1858824"
     inkscape:cy="15.36"
     inkscape:window-width="1920"
     inkscape:window-height="1043"
     inkscape:window-x="1920"
     inkscape:window-y="0"
     inkscape:window-maximized="1"
     inkscape:current-layer="svg476" />
  <path
     d="m 431.4749,-78.528782 q -12.09889,-35.201078 -30.91941,-64.987238 -18.82051,-29.78615 -44.36264,-55.50977 -25.54213,-25.72361 -55.11723,-44.70006 -29.57509,-18.97512 -64.52747,-31.07402 2.68864,38.98535 18.82051,72.59342 16.13187,33.60805 43.01832,60.49451 26.88645,26.88645 60.49451,43.172918 33.60807,16.287811 72.59341,20.01024 z m 77.97206,0 q 38.98535,-2.999184 72.87976,-19.131054 33.89575,-16.131874 61.01208,-43.018324 27.11632,-26.88644 43.24819,-61.01207 16.13187,-34.12429 19.13107,-73.10964 -34.70638,12.0989 -64.73989,30.91942 -30.03351,18.82051 -55.3955,44.36264 -25.362,25.54212 -44.57371,55.78939 -19.2117,30.24725 -31.562,65.199638 z M 470.97783,-521.12143 q 85.62259,0 145.18684,-59.56425 59.56423,-59.56425 59.56423,-145.18683 v -95.55041 l -94.10258,79.31503 -110.64849,-146.53116 -110.6485,146.53116 -94.10258,-79.31503 v 95.55041 q 0,85.62258 59.56424,145.18683 59.56424,59.56425 145.18684,59.56425 z m -20.6824,496.36555 q -112.02643,0 -190.44614,-78.41837 -78.41837,-78.4197 -78.41837,-190.44614 v -47.56885 q 85.10637,13.13269 155.32168,61.21776 70.21396,48.08507 107.33877,117.68065 V -468.2788 q -98.03203,-9.51378 -164.83544,-82.88287 -66.80209,-73.36909 -66.80209,-174.71084 v -118.71444 q 0,-28.74833 25.74916,-39.76102 25.74916,-11.01269 46.43022,7.70431 l 68.45828,59.15019 83.4515,-109.8204 q 13.40156,-16.75295 34.62035,-16.75295 21.22013,0 34.2493,16.75295 l 83.45151,109.8204 68.45828,-59.15019 q 20.68106,-18.717 46.43021,-7.70431 25.74916,11.01269 25.74916,39.76102 v 118.71444 q 0,101.34175 -66.80208,174.71084 -66.80342,73.36909 -164.83545,82.88287 v 304.95284 q 37.12481,-68.56045 106.82255,-116.64552 69.69775,-48.08507 153.77034,-61.21776 v 47.56885 q 0,112.02644 -78.11724,190.44614 -78.11858,78.41837 -189.71349,78.41837 z m 20.6824,-680.12369 z m 136.60467,528.21524 z m -272.89881,0 z"
     id="path474"
     style="fill:#ffffff;stroke-width:1" />
</svg>
