<?xml version="1.0" encoding="UTF-8" standalone="no"?>
<!-- Uploaded to: SVG Repo, www.svgrepo.com, Generator: SVG Repo Mixer Tools -->

<svg
   height="800px"
   width="800px"
   version="1.1"
   id="_x32_"
   viewBox="0 0 512 512"
   xml:space="preserve"
   sodipodi:docname="pessoas4b.svg"
   inkscape:version="1.2.2 (b0a8486, 2022-12-01)"
   xmlns:inkscape="http://www.inkscape.org/namespaces/inkscape"
   xmlns:sodipodi="http://sodipodi.sourceforge.net/DTD/sodipodi-0.dtd"
   xmlns="http://www.w3.org/2000/svg"
   xmlns:svg="http://www.w3.org/2000/svg"><defs
   id="defs256" /><sodipodi:namedview
   id="namedview254"
   pagecolor="#ffffff"
   bordercolor="#666666"
   borderopacity="1.0"
   inkscape:showpageshadow="2"
   inkscape:pageopacity="0.0"
   inkscape:pagecheckerboard="0"
   inkscape:deskcolor="#d1d1d1"
   showgrid="false"
   inkscape:zoom="1.01625"
   inkscape:cx="400.492"
   inkscape:cy="400"
   inkscape:window-width="1920"
   inkscape:window-height="1016"
   inkscape:window-x="0"
   inkscape:window-y="27"
   inkscape:window-maximized="1"
   inkscape:current-layer="_x32_" />
<style
   type="text/css"
   id="style245">
	.st0{fill:#000000;}
</style>
<g
   id="g251"
   style="fill:#ffffff">
	<path
   class="st0"
   d="M452.786,427.066l-3.633-23.125c-3.043-19.389-15.223-36.129-32.748-44.975l-76.414-38.648   c-10.272-5.188-12.996-21.121-12.996-21.121c-0.644-1.039-1.844-1.602-3.051-1.414c-1.209,0.18-2.191,1.058-2.51,2.238   l-8.949,34.434l-56.492,112.824l-56.482-112.824l-8.959-34.434c-0.308-1.18-1.301-2.059-2.51-2.238   c-1.209-0.188-2.397,0.375-3.043,1.414c0,0-2.724,15.934-12.994,21.121l-76.424,38.648c-17.508,8.846-29.687,25.586-32.73,44.975   l-3.642,23.125c-1.281,8.258,0.422,20.373,7.808,26.43C76.903,461.576,113.425,512,255.993,512   c142.578,0,179.09-50.424,188.984-58.504C452.376,447.44,454.079,435.324,452.786,427.066z"
   id="path247"
   style="fill:#ffffff" />
	<path
   class="st0"
   d="M183.427,173.959c-1.676-46.97,69.898-44.937,102.133-97.3c9.764,17.75,26.634,43.693,42.166,64.738   c0.244,100.953,7.302,174.971,79.682,138.778c0,0-38.309-23.098-40.266-55.36c-3.362-55.367,4.26-95.916,0-124.676   c-0.338-2.352-0.844-4.738-1.387-7.135C360.362,38.178,312.167,0.178,256.339,0.02C256.124,0,255.993,0,255.993,0   c-62.231,0-104.446,54.844-111.149,100.139c-4.26,28.76,3.362,69.308,0,124.676c-1.957,32.262-40.267,55.36-40.267,55.36   C178.39,317.088,186.114,249.279,183.427,173.959z"
   id="path249"
   style="fill:#ffffff" />
</g>
</svg>
