<?xml version="1.0" encoding="UTF-8" standalone="no"?>
<!-- Uploaded to: SVG Repo, www.svgrepo.com, Transformed by: SVG Repo Mixer Tools -->

<svg
   height="800px"
   width="800px"
   version="1.1"
   id="_x32_"
   viewBox="0 0 512 512"
   xml:space="preserve"
   fill="#ffffff"
   sodipodi:docname="pessoas1bc.svg"
   inkscape:version="1.2.2 (b0a8486, 2022-12-01)"
   xmlns:inkscape="http://www.inkscape.org/namespaces/inkscape"
   xmlns:sodipodi="http://sodipodi.sourceforge.net/DTD/sodipodi-0.dtd"
   xmlns="http://www.w3.org/2000/svg"
   xmlns:svg="http://www.w3.org/2000/svg"><defs
   id="defs268">    </defs><sodipodi:namedview
   id="namedview266"
   pagecolor="#ffffff"
   bordercolor="#666666"
   borderopacity="1.0"
   inkscape:showpageshadow="2"
   inkscape:pageopacity="0.0"
   inkscape:pagecheckerboard="0"
   inkscape:deskcolor="#d1d1d1"
   showgrid="false"
   inkscape:zoom="0.71859727"
   inkscape:cx="274.14521"
   inkscape:cy="371.55722"
   inkscape:window-width="1920"
   inkscape:window-height="1043"
   inkscape:window-x="1920"
   inkscape:window-y="0"
   inkscape:window-maximized="1"
   inkscape:current-layer="SVGRepo_iconCarrier" />

<g
   id="SVGRepo_bgCarrier"
   stroke-width="0" />

<g
   id="SVGRepo_tracerCarrier"
   stroke-linecap="round"
   stroke-linejoin="round" />

<g
   id="SVGRepo_iconCarrier"> <style
   type="text/css"
   id="style254"> .st0{fill:#efefef;} </style> <path
   class="st0"
   d="m 128.082,97.44 c 26.912,0 48.716,-21.821 48.716,-48.716 C 176.798,21.804 154.994,0 128.082,0 101.161,0 79.358,21.804 79.358,48.724 c 0,26.896 21.803,48.716 48.724,48.716 z"
   id="path256" /><path
   class="st0"
   d="m 361.779,97.44 c 26.912,0 48.725,-21.821 48.725,-48.716 C 410.504,21.804 388.692,0 361.779,0 c -26.916,0 -48.72,21.804 -48.72,48.724 0,26.896 21.804,48.716 48.72,48.716 z"
   id="path258" /><path
   class="st0"
   d="M 207.83808,153.756 C 197.08308,130.241 173.602,115.166 147.746,115.166 H 128.082 85.368 c -23.607,0 -49.291,25.688 -49.291,49.295 v 163.76492 c 0,11.804 9.56,21.37608 21.367,21.37608 l 14.916,-8e-5 8.125,139.65408 c 0,12.558 10.189,22.743 22.752,22.743 h 24.844 24.845 c 12.563,0 22.751,-10.185 22.751,-22.743 l 8.12,-139.65408 h 16.6212 l 7.41988,-21.376 m 74.18112,13.11296 c -25.09172,50.84584 -17.11673,50.41898 -20.34992,77.83276 l 54.71972,0.57936 10.688,72.592 c 0,9.152 7.433,16.577 16.581,16.577 h 18.121 18.104 c 9.161,0 16.593,-7.425 16.593,-16.577 l 10.688,-72.592 h 68.758 c -2.634,-28.111 1.6406,-29.27516 -22.13896,-78.49153 1.76533,-56.10241 0,-118.61531 0,-176.79847 0,-23.607 -25.68704,-49.295 -49.29404,-49.295 h -42.71 -19.664 c -25.859,0 -49.3368,15.076 -60.0958,38.59"
   id="path260"
   sodipodi:nodetypes="cscssssccscsccccccccscscccccscsc" /> </g>

</svg>
